<svg width="48" height="48" viewBox="0 0 48 48" fill="none" xmlns="http://www.w3.org/2000/svg">
<path d="M44 9.3394V33.4794C44 35.3994 42.44 37.1994 40.52 37.4394L39.86 37.5195C35.5 38.0995 28.7799 40.3194 24.9399 42.4394C24.4199 42.7394 23.56 42.7394 23.02 42.4394L22.9399 42.3995C19.0999 40.2995 12.4001 38.0995 8.06006 37.5195L7.47998 37.4394C5.55998 37.1994 4 35.3994 4 33.4794V9.31938C4 6.93938 5.93995 5.1394 8.31995 5.3394C12.5199 5.6794 18.8799 7.79945 22.4399 10.0195L22.9399 10.3194C23.5199 10.6794 24.4801 10.6794 25.0601 10.3194L25.4 10.0994C26.66 9.31941 28.26 8.5394 30 7.8394V15.9994L34 13.3394L38 15.9994V5.55949C38.54 5.45949 39.06 5.39942 39.54 5.35942H39.66C42.04 5.15942 44 6.9394 44 9.3394Z" stroke="#D55E00" stroke-width="3" stroke-linecap="round" stroke-linejoin="round"/>
<path d="M24 10.9805V40.9805" stroke="#D55E00" stroke-width="3" stroke-linecap="round" stroke-linejoin="round"/>
<path d="M38 5.56055V16.0005L34 13.3405L30 16.0005V7.84045C32.62 6.80045 35.54 5.96055 38 5.56055Z" stroke="#D55E00" stroke-width="3" stroke-linecap="round" stroke-linejoin="round"/>
</svg>
