<svg width="256" height="256" viewBox="0 0 256 256" fill="none" xmlns="http://www.w3.org/2000/svg">
<path d="M219.429 0H36.5714C16.3736 0 0 16.3736 0 36.5714V219.429C0 239.626 16.3736 256 36.5714 256H219.429C239.626 256 256 239.626 256 219.429V36.5714C256 16.3736 239.626 0 219.429 0Z" fill="url(#paint0_linear_70_430)"/>
<path d="M168.229 36.5708H51.2001C43.121 36.5708 36.5715 43.1202 36.5715 51.1994V131.657C36.5715 139.736 43.121 146.285 51.2001 146.285H168.229C176.308 146.285 182.857 139.736 182.857 131.657V51.1994C182.857 43.1202 176.308 36.5708 168.229 36.5708Z" fill="white"/>
<path d="M66.5945 97.9734C72.5618 96.9212 76.5462 91.2308 75.494 85.2635C74.4418 79.2962 68.7514 75.3117 62.7841 76.3639C56.8168 77.4161 52.8323 83.1065 53.8845 89.0738C54.9367 95.0411 60.6272 99.0256 66.5945 97.9734Z" fill="#1E40AF"/>
<path d="M56.2215 92.6974C60.3323 89.2481 60.8685 83.1194 57.4191 79.0087C53.9698 74.8979 47.8412 74.3617 43.7304 77.8111C39.6197 81.2604 39.0835 87.3891 42.5328 91.4998C45.9821 95.6106 52.1108 96.1467 56.2215 92.6974Z" fill="#1E40AF"/>
<path d="M71.1076 80.2062C75.2184 76.7569 75.7546 70.6282 72.3052 66.5175C68.8559 62.4067 62.7273 61.8705 58.6165 65.3199C54.5058 68.7692 53.9696 74.8979 57.4189 79.0086C60.8682 83.1194 66.9969 83.6555 71.1076 80.2062Z" fill="#1E40AF"/>
<path d="M68.713 107.584C72.8237 104.135 73.3599 98.0062 69.9106 93.8954C66.4613 89.7847 60.3326 89.2485 56.2219 92.6978C52.1111 96.1471 51.5749 102.276 55.0242 106.387C58.4736 110.497 64.6022 111.033 68.713 107.584Z" fill="#1E40AF"/>
<path d="M83.5996 95.0934C87.7103 91.6441 88.2465 85.5154 84.7972 81.4047C81.3479 77.2939 75.2192 76.7577 71.1085 80.2071C66.9977 83.6564 66.4615 89.7851 69.9108 93.8958C73.3602 98.0066 79.4888 98.5427 83.5996 95.0934Z" fill="#1E40AF"/>
<path d="M69.911 93.895L82.4021 108.781Z" fill="black"/>
<path d="M69.911 93.895L82.4021 108.781" stroke="#1E40AF" stroke-width="2"/>
<path d="M101.336 72.8935C107.03 74.9659 113.326 72.0301 115.398 66.3362C117.47 60.6422 114.535 54.3464 108.841 52.2739C103.147 50.2015 96.8509 53.1373 94.7784 58.8313C92.706 64.5252 95.6418 70.8211 101.336 72.8935Z" fill="#1E40AF"/>
<path d="M94.9913 63.1397C100.276 62.2079 103.805 57.1684 102.873 51.8837C101.941 46.5991 96.9015 43.0704 91.6169 44.0022C86.3322 44.9341 82.8035 49.9735 83.7353 55.2582C84.6672 60.5429 89.7066 64.0716 94.9913 63.1397Z" fill="#1E40AF"/>
<path d="M114.129 59.7652C119.414 58.8334 122.942 53.7939 122.01 48.5092C121.079 43.2246 116.039 39.6959 110.754 40.6277C105.47 41.5595 101.941 46.599 102.873 51.8837C103.805 57.1684 108.844 60.6971 114.129 59.7652Z" fill="#1E40AF"/>
<path d="M98.3667 82.2774C103.651 81.3456 107.18 76.3061 106.248 71.0214C105.316 65.7368 100.277 62.2081 94.9922 63.1399C89.7075 64.0717 86.1789 69.1112 87.1107 74.3959C88.0425 79.6806 93.082 83.2093 98.3667 82.2774Z" fill="#1E40AF"/>
<path d="M117.502 78.9024C122.787 77.9706 126.316 72.9311 125.384 67.6464C124.452 62.3618 119.413 58.8331 114.128 59.7649C108.843 60.6967 105.315 65.7362 106.246 71.0209C107.178 76.3056 112.218 79.8343 117.502 78.9024Z" fill="#1E40AF"/>
<path d="M106.248 71.021L109.622 90.1585Z" fill="black"/>
<path d="M106.248 71.021L109.622 90.1585" stroke="#1E40AF" stroke-width="2"/>
<path d="M36.5715 182.857H146.286" stroke="white" stroke-width="4" stroke-linecap="round"/>
<path d="M173.713 193.829C179.772 193.829 184.685 188.917 184.685 182.858C184.685 176.798 179.772 171.886 173.713 171.886C167.654 171.886 162.742 176.798 162.742 182.858C162.742 188.917 167.654 193.829 173.713 193.829Z" fill="white"/>
<defs>
<linearGradient id="paint0_linear_70_430" x1="0" y1="0" x2="25600" y2="25600" gradientUnits="userSpaceOnUse">
<stop stop-color="#1E40AF"/>
<stop offset="1" stop-color="#3B82F6"/>
</linearGradient>
</defs>
</svg>
