<svg width="130" height="168" viewBox="0 0 130 168" fill="none" xmlns="http://www.w3.org/2000/svg">
<path d="M65.2031 112C82.8831 112 97.2031 97.68 97.2031 80V36C97.2031 18.32 82.8831 4 65.2031 4C47.5231 4 33.2031 18.32 33.2031 36V80C33.2031 97.68 47.5231 112 65.2031 112Z" stroke="white" stroke-width="7" stroke-linecap="round" stroke-linejoin="round"/>
<path d="M4 65.2031V78.8031C4 112.563 31.44 140.003 65.2 140.003C98.96 140.003 126.4 112.563 126.4 78.8031V65.2031" stroke="white" stroke-width="7" stroke-linecap="round" stroke-linejoin="round"/>
<path d="M54.0781 39.4331C61.2781 36.7931 69.1181 36.7931 76.3181 39.4331" stroke="white" stroke-width="7" stroke-linecap="round" stroke-linejoin="round"/>
<path d="M58.7969 56.4025C63.0369 55.2825 67.4369 55.2825 71.6769 56.4025" stroke="white" stroke-width="7" stroke-linecap="round" stroke-linejoin="round"/>
<path d="M65.2031 140V164" stroke="white" stroke-width="7" stroke-linecap="round" stroke-linejoin="round"/>
</svg>
